<?xml version="1.0" encoding="UTF-8" standalone="no" ?>
<!DOCTYPE svg PUBLIC "-//W3C//DTD SVG 1.1//EN" "http://www.w3.org/Graphics/SVG/1.1/DTD/svg11.dtd">
<svg xmlns="http://www.w3.org/2000/svg" xmlns:xlink="http://www.w3.org/1999/xlink" version="1.1" width="540.9259" height="463.77139999999997" xml:space="preserve">
<desc>Created with Fabric.js 1.6.0-rc.1</desc>
<defs></defs>
<g style="stroke: none; stroke-width: 1; stroke-dasharray: none; stroke-linecap: butt; stroke-linejoin: miter; stroke-miterlimit: 10; fill: none; fill-rule: nonzero; opacity: 1;" transform="translate(60.139999999999986 107.18999999999998) scale(0.45 0.4)" >
  <path d="M 711.086 86.439 S 560.85 -5.415 446.226 87.888 l -140.078 285.74 s 153.525 -50.004 246.33 39.366 L 711.086 86.439 z" style="stroke: none; stroke-width: 1; stroke-dasharray: none; stroke-linecap: butt; stroke-linejoin: miter; stroke-miterlimit: 10; fill: #368c88; fill-rule: nonzero; opacity: 1;" transform=" matrix(0.9999997087427964 0 0 0.9999997087427964 0 0) " stroke-linecap="round" />
  <path d="M 380.065 323.474 c 5.24 -20.061 3.06 -41.491 10.665 -61.01 c 0.188 -0.478 -1.7 -0.254 -1.916 0.299 c -7.606 19.518 -5.426 40.948 -10.665 61.01 c -0.144 0.549 1.771 0.256 1.916 -0.3 z M 300.654 368.333 s -73.4 -96.63 -247.999 -36.647 L 217.927 62.44 s 197.246 -56.713 221.24 23.265 L 300.654 368.333 z" style="stroke: none; stroke-width: 1; stroke-dasharray: none; stroke-linecap: butt; stroke-linejoin: miter; stroke-miterlimit: 10; fill: #368c88; fill-rule: nonzero; opacity: 1;" transform=" matrix(0.9999997087427964 0 0 0.9999997087427964 0 0) " stroke-linecap="round" />
  <path d="M 309.4 381.839 s 149.077 -53.318 248.621 51.979 c 0 -0.001 -169.929 -37.761 -248.62 -51.98 z M 287.88 376.95 L 52.654 339.62 S 212 290.75 287.88 376.95 z M 721.012 108.159 L 562.906 432.927 l -4.679 -8.736 L 717.383 92.51 z" style="stroke: none; stroke-width: 1; stroke-dasharray: none; stroke-linecap: butt; stroke-linejoin: miter; stroke-miterlimit: 10; fill: #4f3307; fill-rule: nonzero; opacity: 1;" transform=" matrix(0.9999997087427964 0 0 0.9999997087427964 0 0) " stroke-linecap="round" />
  <path d="M 619.101 184.046 c -0.429 0 -0.865 -0.11 -1.266 -0.336 c -0.752 -0.43 -76.3 -42.51 -169.822 -15.472 a 2.566 2.566 0 1 1 -1.426 -4.93 c 95.681 -27.65 173.017 15.505 173.788 15.946 a 2.565 2.565 0 1 1 -1.274 4.792 z M 595.166 219.948 a 2.55 2.55 0 0 1 -1.266 -0.337 c -0.754 -0.431 -76.3 -42.508 -169.822 -15.472 a 2.57 2.57 0 0 1 -3.178 -1.75 a 2.568 2.568 0 0 1 1.752 -3.178 c 95.685 -27.653 173.016 15.504 173.787 15.944 a 2.563 2.563 0 0 1 0.957 3.496 a 2.561 2.561 0 0 1 -2.23 1.297 z M 574.651 254.14 c -0.429 0 -0.864 -0.107 -1.265 -0.336 c -0.753 -0.43 -76.299 -42.51 -169.823 -15.472 a 2.567 2.567 0 0 1 -1.426 -4.93 c 95.681 -27.65 173.017 15.505 173.788 15.944 a 2.563 2.563 0 0 1 0.956 3.496 a 2.56 2.56 0 0 1 -2.23 1.298 z M 557.555 290.043 c -0.429 0 -0.866 -0.108 -1.266 -0.336 c -0.753 -0.43 -76.302 -42.507 -169.823 -15.472 a 2.567 2.567 0 0 1 -1.426 -4.93 c 95.681 -27.653 173.017 15.502 173.788 15.944 a 2.563 2.563 0 0 1 0.957 3.496 a 2.558 2.558 0 0 1 -2.23 1.298 z M 641.326 148.143 c -0.43 0 -0.866 -0.108 -1.267 -0.335 c -0.754 -0.43 -76.302 -42.51 -169.822 -15.472 a 2.57 2.57 0 0 1 -3.178 -1.751 a 2.57 2.57 0 0 1 1.752 -3.177 c 95.677 -27.654 173.016 15.503 173.788 15.944 a 2.562 2.562 0 0 1 0.956 3.496 a 2.559 2.559 0 0 1 -2.229 1.295 z" style="stroke: none; stroke-width: 1; stroke-dasharray: none; stroke-linecap: butt; stroke-linejoin: miter; stroke-miterlimit: 10; fill: #fff; fill-rule: nonzero; opacity: 1;" transform=" matrix(0.9999997087427964 0 0 0.9999997087427964 0 0) " stroke-linecap="round" />
  <path d="M 15.244 31.235 c 38 10.273 74.298 28.473 108.577 48.549 c 11.103 6.583 28.122 17.62 38.845 24.8 c -37.486 -11.98 -79.664 -9.776 -102.094 -3.012 l -0.315 -0.095 c -2.459 -0.664 -11.43 -1.787 -11.43 -1.787 s 8.084 -0.807 8.188 -1.273 c 0.783 -3.508 -9.64 -4.921 -12.469 -7.13 c -2.095 -1.63 -11.3 -7.478 -11.3 -7.478 s 4.69 -2.233 4.387 -2.836 c -1.385 -2.79 -8.268 -4.368 -10.874 -6.065 c -4.588 -2.997 -13.138 -9.96 -16.885 -13.956 c -2.792 -2.977 -8.573 -9.265 -9.567 -13.225 c -1.277 -5.1 1.774 -15.681 2.812 -20.832 c 0.476 -2.371 1.211 -7.3 2.523 -9.332 c 2.76 -4.28 11.192 -10.614 15.707 -12.964 C 25.164 2.609 33.63 0.073 37.93 0.003 C 46.613 -0.14 63.52 5.27 71.7 8.19 c 7.647 2.738 30.34 11.643 30.34 11.643 l 14.981 38.98 l -11.162 -35.758 s 11.036 4.545 14.533 6.43 c 0.917 0.496 2.031 1.238 3.24 2.074 c 4.69 19.135 18.822 44.872 34.735 64.975 c -9.027 -5.583 -23.65 -14.36 -32.917 -19.528 c -34.979 -19.25 -71.908 -36.534 -110.206 -45.772 z" style="stroke: none; stroke-width: 1; stroke-dasharray: none; stroke-linecap: butt; stroke-linejoin: miter; stroke-miterlimit: 10; fill: #9b0b0b; fill-rule: nonzero; opacity: 1;" transform=" matrix(0.9999997087427964 0 0 0.9999997087427964 0 0) " stroke-linecap="round" />
  <path d="M 158.533 96.674 c -15.685 -19.988 -24.253 -42.151 -28.909 -61.14 c 3.11 2.16 6.811 4.975 9.29 6.004 c 3.066 1.287 10.092 1.25 12.987 2.892 c 3.157 1.787 6.728 8.922 9.99 10.522 c 2.471 1.21 8.48 -0.105 10.968 1.084 c 4.184 2 9.415 10.296 13.015 13.222 c 6.828 5.53 22.642 13.6 29.611 18.953 c 4.177 3.208 15.557 14.219 15.557 14.219 l 11.13 46.815 l -3.797 -39.201 s 15.223 14.143 20.23 18.924 a 939.506 939.506 0 0 1 6.257 6.072 c 3.551 19.15 11.011 43.345 26.567 65.598 c -21.16 -19.834 -43.112 -38.778 -65.922 -56.66 c -21.555 -16.85 -43.877 -32.726 -66.974 -47.304 z M 290.407 211.973 c -6.878 -1.655 -39.252 -0.594 -45.88 -1.218 c 4.125 -0.892 32.378 -3.615 32.378 -3.615 s -52.408 -1.987 -69.846 -3.235 c -2.198 -0.153 -6.633 -0.64 -8.695 -1.408 c -4.209 -1.57 -11.413 -7.164 -15.279 -9.45 c -3.909 -2.302 -12.155 -6.12 -16.342 -7.856 c -4.69 -1.947 -20.822 -6.782 -20.822 -6.782 l 30.795 -12.743 s -26.02 -2.48 -34.35 -4.9 c -2.28 -0.662 -6.674 -2.59 -8.65 -3.903 c -3.626 -2.417 -9.69 -8.777 -12.744 -11.894 c -2.523 -2.571 -6.488 -8.95 -9.617 -10.734 c -1.97 -1.127 -6.952 -1.858 -9.04 -2.751 c -3.687 -1.574 -9.88 -5.733 -13.026 -8.223 c -1.858 -1.462 -5.063 -5.025 -7.063 -6.291 c -2.384 -1.503 -10.397 -4.374 -10.397 -4.374 l 6.365 -2.568 s -8.49 -3.544 -11.624 -4.48 c 22.38 -6.747 58.355 -13.066 95.761 -1.176 c 20.375 13.936 40.07 28.876 59.104 44.6 c 24.01 19.87 46.975 40.947 68.972 63 z" style="stroke: none; stroke-width: 1; stroke-dasharray: none; stroke-linecap: butt; stroke-linejoin: miter; stroke-miterlimit: 10; fill: #9b0b0b; fill-rule: nonzero; opacity: 1;" transform=" matrix(0.9999997087427964 0 0 0.9999997087427964 0 0) " stroke-linecap="round" />
  <path d="M 338.422 274.926 s -7.823 0.413 -8.275 0.322 c -2.888 -0.577 -2.312 -2.51 -5.212 -2.98 c -9.642 -1.565 -29.372 -3.664 -38.333 -7.54 c -3.55 -1.544 -18.782 -8.82 -18.782 -8.82 l 10.116 -1.972 s -9.799 -1.914 -12.98 -2.888 c -3.929 -1.198 -11.386 -4.717 -15.282 -6.005 c -5.159 -1.706 -24.265 -4.818 -24.265 -4.818 s 15.961 -5.454 20.376 -6.246 c 6.012 -1.08 18.417 -0.073 24.422 -1.223 c 4.385 -0.846 12.512 -4.904 16.891 -5.762 c 2.578 -0.504 9.476 -1.518 9.476 -1.518 s -25.526 1.132 -34.324 2 c -9.753 0.955 -28.425 5.898 -38.215 5.497 c -4.458 -0.18 -17.739 -3.41 -17.739 -3.41 s 21.108 -6.48 28.221 -8.331 c 8.667 -2.252 29.902 -8.67 41.182 -9.346 c 5.675 -0.343 9.171 -1.17 15.02 0.103 c 17.82 17.983 37.27 39.185 53.851 58.335 l -6.148 4.602 z M 295.171 204.187 c -19.173 -24.082 -20.788 -44.673 -24.714 -65.87 a 4307.11 4307.11 0 0 1 10.578 10.372 s 1.762 24.055 4.74 32.43 c 1.217 3.43 6.511 14.77 6.511 14.77 l -6.409 -39.632 s 15.855 15.506 20.551 21.198 c 3.075 3.72 8.132 11.988 11.064 15.82 c 2.627 3.445 9.486 9.306 11.103 13.326 c 2.927 7.27 -0.53 23.917 2.192 31.259 c 0.328 0.892 0.85 1.967 1.506 3.158 c -9.817 -10.212 -26.932 -27.004 -37.122 -36.831 z" style="stroke: none; stroke-width: 1; stroke-dasharray: none; stroke-linecap: butt; stroke-linejoin: miter; stroke-miterlimit: 10; fill: #9b0b0b; fill-rule: nonzero; opacity: 1;" transform=" matrix(0.9999997087427964 0 0 0.9999997087427964 0 0) " stroke-linecap="round" />
  <path d="M 397.64 313.764 c -51.23 -62.315 -108.77 -120.118 -172.132 -169.785 c -31.688 -24.776 -65.026 -47.436 -100.059 -66.974 c -34.977 -19.247 -71.906 -36.532 -110.204 -45.77 c 38 10.273 74.052 28.848 108.331 48.925 c 40.135 23.813 71.274 48.584 96.875 69.733 c 57.461 47.567 109.987 101.103 156.5 159.417 c 3.315 4.15 20.688 4.454 20.688 4.454 z" style="stroke: none; stroke-width: 1; stroke-dasharray: none; stroke-linecap: butt; stroke-linejoin: miter; stroke-miterlimit: 10; fill: #9b0b0b; fill-rule: nonzero; opacity: 1;" transform=" matrix(0.9999997087427964 0 0 0.9999997087427964 0 0) " stroke-linecap="round" />
</g>
  <g transform="translate(316.47 146.69) rotate(5.99) scale(0.6 0.49)">
   <text font-family="ADAMCG PRO" font-size="40" font-weight="normal" style="stroke: none; stroke-width: 1; stroke-dasharray: none; stroke-linecap: butt; stroke-linejoin: miter; stroke-miterlimit: 10; fill: #ffffff; fill-rule: nonzero; opacity: 1;" ><tspan x="-51.29" y="8.98" style="stroke: none; stroke-width: 0; stroke-dasharray: none; stroke-linecap: butt; stroke-linejoin: miter; stroke-miterlimit: 4; fill: #ffffff; fill-rule: ; opacity: 1;">F</tspan><tspan x="-27.99" y="8.98" style="stroke: none; stroke-width: 0; stroke-dasharray: none; stroke-linecap: butt; stroke-linejoin: miter; stroke-miterlimit: 4; fill: #ffffff; fill-rule: ; opacity: 1;">i</tspan><tspan x="-17.21" y="8.98" style="stroke: none; stroke-width: 0; stroke-dasharray: none; stroke-linecap: butt; stroke-linejoin: miter; stroke-miterlimit: 4; fill: #ffffff; fill-rule: ; opacity: 1;">n</tspan><tspan x="12.3" y="8.98" style="stroke: none; stroke-width: 0; stroke-dasharray: none; stroke-linecap: butt; stroke-linejoin: miter; stroke-miterlimit: 4; fill: #ffffff; fill-rule: ; opacity: 1;">d</tspan><tspan x="39.3" y="8.98" style="stroke: none; stroke-width: 0; stroke-dasharray: none; stroke-linecap: butt; stroke-linejoin: miter; stroke-miterlimit: 4; fill: #ffffff; fill-rule: ; opacity: 1;"> </tspan></text>
 </g>
  <g transform="translate(300.35 167.68) rotate(5.4) scale(0.38 0.38)">
   <text font-family="ADAMCG PRO" font-size="40" font-weight="normal" style="stroke: none; stroke-width: 1; stroke-dasharray: none; stroke-linecap: butt; stroke-linejoin: miter; stroke-miterlimit: 10; fill: #00ff33; fill-rule: nonzero; opacity: 1;" ><tspan x="-66.96" y="8.98" style="stroke: none; stroke-width: 0; stroke-dasharray: none; stroke-linecap: butt; stroke-linejoin: miter; stroke-miterlimit: 4; fill: #00ff33; fill-rule: ; opacity: 1;">T</tspan><tspan x="-43.6" y="8.98" style="stroke: none; stroke-width: 0; stroke-dasharray: none; stroke-linecap: butt; stroke-linejoin: miter; stroke-miterlimit: 4; fill: #00ff33; fill-rule: ; opacity: 1;">u</tspan><tspan x="-15.97" y="8.98" style="stroke: none; stroke-width: 0; stroke-dasharray: none; stroke-linecap: butt; stroke-linejoin: miter; stroke-miterlimit: 4; fill: #00ff33; fill-rule: ; opacity: 1;">t</tspan><tspan x="7.39" y="8.98" style="stroke: none; stroke-width: 0; stroke-dasharray: none; stroke-linecap: butt; stroke-linejoin: miter; stroke-miterlimit: 4; fill: #00ff33; fill-rule: ; opacity: 1;">o</tspan><tspan x="41.34" y="8.98" style="stroke: none; stroke-width: 0; stroke-dasharray: none; stroke-linecap: butt; stroke-linejoin: miter; stroke-miterlimit: 4; fill: #00ff33; fill-rule: ; opacity: 1;">r</tspan></text>
 </g>
  <g transform="translate(139.4 275.27)">
   <text font-family="Broad" font-size="40" font-style="italic" font-weight="bold" style="stroke: none; stroke-width: 1; stroke-dasharray: none; stroke-linecap: butt; stroke-linejoin: miter; stroke-miterlimit: 10; fill: #9b0b0b; fill-rule: nonzero; opacity: 1;" ><tspan x="-58.06" y="8.98" style="stroke: none; stroke-width: 0; stroke-dasharray: none; stroke-linecap: butt; stroke-linejoin: miter; stroke-miterlimit: 4; fill: #9b0b0b; fill-rule: ; opacity: 1;">f</tspan><tspan x="-35.94" y="8.98" style="stroke: none; stroke-width: 0; stroke-dasharray: none; stroke-linecap: butt; stroke-linejoin: miter; stroke-miterlimit: 4; fill: #9b0b0b; fill-rule: ; opacity: 1;">i</tspan><tspan x="-21.06" y="8.98" style="stroke: none; stroke-width: 0; stroke-dasharray: none; stroke-linecap: butt; stroke-linejoin: miter; stroke-miterlimit: 4; fill: #9b0b0b; fill-rule: ; opacity: 1;">n</tspan><tspan x="12.34" y="8.98" style="stroke: none; stroke-width: 0; stroke-dasharray: none; stroke-linecap: butt; stroke-linejoin: miter; stroke-miterlimit: 4; fill: #9b0b0b; fill-rule: ; opacity: 1;">d</tspan><tspan x="46.02" y="8.98" style="stroke: none; stroke-width: 0; stroke-dasharray: none; stroke-linecap: butt; stroke-linejoin: miter; stroke-miterlimit: 4; fill: #9b0b0b; fill-rule: ; opacity: 1;"> </tspan></text>
 </g>
  <g transform="translate(245.88 275.27)">
   <text font-family="Merkin Foo" font-size="40" font-style="italic" font-weight="bold" style="stroke: none; stroke-width: 1; stroke-dasharray: none; stroke-linecap: butt; stroke-linejoin: miter; stroke-miterlimit: 10; fill: #000000; fill-rule: nonzero; opacity: 1;" ><tspan x="-62.54" y="8.98" style="stroke: none; stroke-width: 0; stroke-dasharray: none; stroke-linecap: butt; stroke-linejoin: miter; stroke-miterlimit: 4; fill: #000000; fill-rule: ; opacity: 1;">T</tspan><tspan x="-33.02" y="8.98" style="stroke: none; stroke-width: 0; stroke-dasharray: none; stroke-linecap: butt; stroke-linejoin: miter; stroke-miterlimit: 4; fill: #000000; fill-rule: ; opacity: 1;">u</tspan><tspan x="-5.94" y="8.98" style="stroke: none; stroke-width: 0; stroke-dasharray: none; stroke-linecap: butt; stroke-linejoin: miter; stroke-miterlimit: 4; fill: #000000; fill-rule: ; opacity: 1;">t</tspan><tspan x="12.62" y="8.98" style="stroke: none; stroke-width: 0; stroke-dasharray: none; stroke-linecap: butt; stroke-linejoin: miter; stroke-miterlimit: 4; fill: #000000; fill-rule: ; opacity: 1;">o</tspan><tspan x="39.82" y="8.98" style="stroke: none; stroke-width: 0; stroke-dasharray: none; stroke-linecap: butt; stroke-linejoin: miter; stroke-miterlimit: 4; fill: #000000; fill-rule: ; opacity: 1;">r</tspan></text>
 </g>
<g style="stroke: none; stroke-width: 1; stroke-dasharray: none; stroke-linecap: butt; stroke-linejoin: miter; stroke-miterlimit: 10; fill: none; fill-rule: nonzero; opacity: 1;" transform="translate(10 10) scale(9.79 8.34)" >
  <circle cx="21" cy="21" r="20" style="stroke: none; stroke-width: 1; stroke-dasharray: none; stroke-linecap: butt; stroke-linejoin: miter; stroke-miterlimit: 10; fill: #556080; fill-rule: nonzero; opacity: 0;" transform="  matrix(1 0 0 1 0 0) "/>
  <path d="M 36.483 33.655 c -0.846 1.034 -1.794 1.982 -2.828 2.828 l 15.73 15.73 l 2.828 -2.828 L 36.483 33.655 z" style="stroke: none; stroke-width: 1; stroke-dasharray: none; stroke-linecap: butt; stroke-linejoin: miter; stroke-miterlimit: 10; fill: #2E253B; fill-rule: nonzero; opacity: 1;" transform=" matrix(1 0 0 1 0 0) " stroke-linecap="round" />
  <path d="M 3.493 31.85 c 0.84 1.424 1.849 2.776 3.072 3.999 c 0.723 0.723 1.499 1.356 2.297 1.945 L 36.794 9.862 c -0.589 -0.798 -1.222 -1.574 -1.945 -2.297 c -1.223 -1.223 -2.575 -2.232 -3.999 -3.072 L 3.493 31.85 z" style="stroke: none; stroke-width: 1; stroke-dasharray: none; stroke-linecap: butt; stroke-linejoin: miter; stroke-miterlimit: 10; fill: #7383BF; fill-rule: nonzero; opacity: 0;" transform=" matrix(1 0 0 1 0 0) " stroke-linecap="round" />
  <path d="M 21 42 C 9.42 42 0 32.58 0 21 S 9.42 0 21 0 s 21 9.42 21 21 S 32.58 42 21 42 z M 21 2 C 10.523 2 2 10.523 2 21 s 8.523 19 19 19 s 19 -8.523 19 -19 S 31.477 2 21 2 z" style="stroke: none; stroke-width: 1; stroke-dasharray: none; stroke-linecap: butt; stroke-linejoin: miter; stroke-miterlimit: 10; fill: #2E253B; fill-rule: nonzero; opacity: 1;" transform=" matrix(1 0 0 1 0 0) " stroke-linecap="round" />
</g>
</svg>